<svg xmlns="http://www.w3.org/2000/svg" xmlns:xlink="http://www.w3.org/1999/xlink" width="19" height="16" viewBox="0 0 19 16">
  <defs>
    <style>
      .cls-1 {
        fill: #e82026;
        fill-rule: evenodd;
        filter: url(#filter);
      }
    </style>
    <filter id="filter" x="1227" y="2130" width="19" height="16" filterUnits="userSpaceOnUse">
      <feOffset result="offset" dy="1" in="SourceAlpha"/>
      <feGaussianBlur result="blur"/>
      <feFlood result="flood" flood-color="#fff"/>
      <feComposite result="composite" operator="in" in2="blur"/>
      <feBlend result="blend" in="SourceGraphic"/>
      <feGaussianBlur result="blur-2" stdDeviation="1.414" in="SourceAlpha"/>
      <feFlood result="flood-2" flood-opacity="0.24"/>
      <feComposite result="composite-2" operator="out" in2="blur-2"/>
      <feOffset result="offset-2" dx="0.5" dy="0.866"/>
      <feComposite result="composite-3" operator="in" in2="SourceAlpha"/>
      <feBlend result="blend-2" mode="multiply" in2="blend"/>
    </filter>
  </defs>
  <path id="Twitter_Icon" data-name="Twitter Icon" class="cls-1" d="M1245.99,2131.84c-0.09.68-1.12,1.36-1.75,1.88,0.62,8.69-9.72,14.11-17.23,9.71,2.1,0.01,4.48-.54,5.73-1.67-1.82-.28-3.11-1.07-3.62-2.61a5.025,5.025,0,0,0,1.65-.11c-1.67-.6-2.99-1.54-3.07-3.65a5.628,5.628,0,0,0,1.64.31c-1.07-.66-2.31-3.16-1.2-5.01a11.948,11.948,0,0,0,8.21,3.97c-0.94-3.84,4.39-6.22,6.8-3.45a14.326,14.326,0,0,0,2.52-.84,5.027,5.027,0,0,1-1.65,1.99A6.172,6.172,0,0,0,1245.99,2131.84Z" transform="translate(-1227 -2130)"/>
</svg>
