<?xml version="1.0" encoding="UTF-8"?>
<svg xmlns="http://www.w3.org/2000/svg" xmlns:xlink="http://www.w3.org/1999/xlink" width="288pt" height="144.42pt" viewBox="0 0 288 144.42" version="1.1">
<g id="surface1">
<path style=" stroke:none;fill-rule:nonzero;fill:rgb(92.89856%,10.998535%,14.099121%);fill-opacity:1;" d="M 144.09375 95.820313 C 199.183594 95.820313 249.519531 114.097656 288 144.269531 L 288 -0.00390625 L 0 -0.00390625 L 0 144.421875 C 38.507813 114.15625 88.914063 95.820313 144.09375 95.820313 "/>
<path style=" stroke:none;fill-rule:nonzero;fill:rgb(100%,100%,100%);fill-opacity:1;" d="M 39.617188 67.867188 L 39.617188 85.902344 C 39.617188 88.238281 37.71875 90.136719 35.382813 90.136719 C 33.042969 90.136719 31.148438 88.238281 31.148438 85.902344 L 31.148438 34.613281 C 31.148438 32.273438 33.042969 30.378906 35.382813 30.378906 C 37.71875 30.378906 39.617188 32.273438 39.617188 34.613281 L 39.617188 50.824219 L 52.902344 50.824219 L 52.902344 34.75 C 52.902344 25.089844 47.144531 17.253906 35.40625 17.253906 C 23.640625 17.253906 17.90625 25.089844 17.90625 34.75 L 17.90625 85.121094 C 17.90625 94.78125 24 102.613281 35.40625 102.613281 C 44.886719 102.613281 52.902344 94.78125 52.902344 85.121094 L 52.902344 67.867188 L 39.617188 67.867188 "/>
<path style=" stroke:none;fill-rule:nonzero;fill:rgb(100%,100%,100%);fill-opacity:1;" d="M 73.589844 34.824219 C 73.589844 32.496094 75.484375 30.605469 77.824219 30.605469 C 80.164063 30.605469 82.058594 32.496094 82.058594 34.824219 L 82.058594 56.441406 L 73.589844 56.441406 Z M 73.589844 85.820313 L 73.589844 69.378906 L 82.058594 69.378906 L 82.058594 83.875 C 86.363281 82.964844 90.796875 82.148438 95.34375 81.429688 L 95.34375 34.960938 C 95.34375 25.335938 89.585938 17.53125 77.847656 17.53125 C 66.082031 17.53125 60.351563 25.335938 60.351563 34.960938 L 60.351563 85.136719 C 60.351563 86.617188 60.496094 88.050781 60.78125 89.421875 C 64.882813 88.125 69.160156 86.921875 73.589844 85.820313 "/>
<path style=" stroke:none;fill-rule:nonzero;fill:rgb(100%,100%,100%);fill-opacity:1;" d="M 116.929688 78.796875 L 116.929688 51.71875 L 126.738281 71.273438 L 136.601563 51.492188 L 136.601563 77.316406 C 136.601563 77.316406 147.898438 77.21875 150.015625 77.21875 L 150.015625 19.328125 L 135.539063 19.328125 L 126.738281 43.132813 L 118.101563 19.328125 L 103.25 19.328125 L 103.25 80.257813 C 107.71875 79.675781 112.28125 79.1875 116.929688 78.796875 "/>
<path style=" stroke:none;fill-rule:nonzero;fill:rgb(100%,100%,100%);fill-opacity:1;" d="M 180.503906 48.109375 C 180.503906 49.582031 179.3125 50.773438 177.84375 50.773438 L 170.761719 50.773438 L 170.761719 30.859375 L 177.84375 30.859375 C 179.3125 30.859375 180.503906 32.050781 180.503906 33.523438 Z M 181.503906 19.328125 L 158.003906 19.328125 L 158.003906 77.40625 C 158.003906 77.40625 164.613281 77.667969 171.414063 78.117188 C 171.414063 73.722656 171.414063 62.140625 171.414063 62.140625 L 181.503906 62.140625 C 187.4375 62.140625 192.246094 57.332031 192.246094 51.398438 L 192.246094 30.070313 C 192.246094 24.140625 187.4375 19.328125 181.503906 19.328125 "/>
<path style=" stroke:none;fill-rule:nonzero;fill:rgb(100%,100%,100%);fill-opacity:1;" d="M 212.632813 73.523438 L 212.632813 59.503906 L 225.980469 59.503906 L 225.980469 46.78125 L 212.632813 46.78125 L 212.632813 31.632813 L 227.308594 31.632813 L 227.308594 19.328125 L 198.714844 19.328125 L 198.714844 82.394531 C 209.164063 84.289063 218.960938 86.714844 227.921875 89.585938 L 227.921875 76.371094 L 212.632813 73.523438 "/>
<path style=" stroke:none;fill-rule:nonzero;fill:rgb(100%,100%,100%);fill-opacity:1;" d="M 247.117188 30.859375 L 254.332031 30.859375 C 255.828125 30.859375 257.042969 32.050781 257.042969 33.523438 L 257.042969 48.109375 C 257.042969 49.582031 255.828125 50.773438 254.332031 50.773438 L 247.117188 50.773438 Z M 262.875 61.046875 C 266.503906 59.296875 269 55.636719 269 51.398438 L 269 30.070313 C 269 24.140625 264.101563 19.328125 258.0625 19.328125 L 234.125 19.328125 L 234.125 92.019531 C 234.125 92.019531 242.363281 95.289063 247.785156 97.578125 C 247.785156 94.136719 247.785156 74.332031 247.785156 65.921875 C 249.449219 66.089844 251.726563 66.644531 253.507813 68.292969 C 256.699219 71.246094 256.382813 75.105469 256.382813 76.546875 C 256.382813 77.980469 256.390625 101.144531 256.390625 101.144531 C 256.390625 101.144531 267.804688 106.589844 269.601563 107.585938 C 269.601563 107.585938 269.601563 80.804688 269.601563 74.097656 C 269.601563 67.890625 266.71875 63.191406 262.875 61.046875 "/>
</g>
</svg>
