<?xml version="1.0" encoding="UTF-8" standalone="no"?>
<!-- Generator: Adobe Illustrator 18.1.1, SVG Export Plug-In . SVG Version: 6.00 Build 0)  -->

<svg
   xmlns:dc="http://purl.org/dc/elements/1.1/"
   xmlns:cc="http://creativecommons.org/ns#"
   xmlns:rdf="http://www.w3.org/1999/02/22-rdf-syntax-ns#"
   xmlns:svg="http://www.w3.org/2000/svg"
   xmlns="http://www.w3.org/2000/svg"
   xmlns:sodipodi="http://sodipodi.sourceforge.net/DTD/sodipodi-0.dtd"
   xmlns:inkscape="http://www.inkscape.org/namespaces/inkscape"
   version="1.1"
   id="Layer_1"
   x="0px"
   y="0px"
   viewBox="0 0 3824.7065 666.98185"
   enable-background="new 0 0 2730 1582.8"
   xml:space="preserve"
   sodipodi:docname="svg_superga_logo2.svg"
   inkscape:version="0.92.4 5da689c313, 2019-01-14"
   width="3824.7065"
   height="666.98187"><metadata
   id="metadata1037"><rdf:RDF><cc:Work
       rdf:about=""><dc:format>image/svg+xml</dc:format><dc:type
         rdf:resource="http://purl.org/dc/dcmitype/StillImage" /><dc:title></dc:title></cc:Work></rdf:RDF></metadata><defs
   id="defs1035" /><sodipodi:namedview
   pagecolor="#ffffff"
   bordercolor="#666666"
   borderopacity="1"
   objecttolerance="10"
   gridtolerance="10"
   guidetolerance="10"
   inkscape:pageopacity="0"
   inkscape:pageshadow="2"
   inkscape:window-width="1916"
   inkscape:window-height="1041"
   id="namedview1033"
   showgrid="false"
   inkscape:zoom="0.18920934"
   inkscape:cx="1452.0836"
   inkscape:cy="-422.16757"
   inkscape:window-x="0"
   inkscape:window-y="18"
   inkscape:window-maximized="0"
   inkscape:current-layer="g1030"
   fit-margin-top="0"
   fit-margin-left="0"
   fit-margin-right="0"
   fit-margin-bottom="0" />
<g
   id="g1030"
   transform="translate(1110.4053,-683.08219)">
	<path
   display="none"
   d="m -392,2036 c 0,-826.7 0,-1653.3 0,-2480 1169.3,0 2338.7,0 3508,0 0,826.7 0,1653.3 0,2480 -1169.3,0 -2338.7,0 -3508,0 z"
   id="path946"
   inkscape:connector-curvature="0"
   style="display:none;fill:#ffffff" />
	
	<g
   id="g1041"
   transform="translate(-1959.9787,669.86025)"><path
     style="fill:#ce1722"
     inkscape:connector-curvature="0"
     id="path948"
     d="m 1615.6,63.1 c 99.4,40.7 203.9,140.1 196,301.2 -3.2,65.6 -25.7,124.1 -68,174.6 -34.8,41.6 -77.9,71.8 -129,94.1 0,-5.2 0,-8.7 0,-12.3 0,-45.3 -0.2,-90.6 0.2,-136 0.3,-38.2 -9.3,-73.1 -31.4,-104.3 -19.5,-27.6 -45.1,-47.9 -76.4,-60.7 -70.3,-28.6 -140.6,-57.2 -210.9,-85.9 -33.3,-13.6 -53.8,-38.2 -61.2,-73.5 -2,-9.5 -1.5,-19.3 -1.3,-28.9 0.2,-14.3 -1,-28.6 2.2,-42.8 10.1,-44.2 51.1,-77.2 99,-75.3 45,1.8 84,35.7 91.6,80.6 1.1,6.3 1.5,12.5 1.5,18.9 0,40 0,80 0.1,120 0,9.3 -1.3,9.4 9,9.4 56.3,0 112.6,0 169,0 9,0 8.7,0.6 8.7,-8.7 0,-53 0,-106 0,-159 0,-3.4 -0.7,-7.1 0.9,-11.4 z" /><path
     style="fill:#ce1722"
     inkscape:connector-curvature="0"
     id="path950"
     d="M 1046.5,632 C 946.7,591.3 841.2,494.1 850.1,328 857.4,193 951.4,100.4 1046.3,63.5 c 0,16.3 0,32.2 0,48.1 0,33 -0.1,66 0.2,99 0.4,42.5 13.6,80.4 41.1,113.1 18.3,21.8 40.7,38.1 67.2,48.9 70.3,28.5 140.7,56.9 211,85.5 30.4,12.3 50,34.4 58.9,66 0.9,3.2 1.7,6.5 2,9.8 1.8,23.6 3.6,47.3 -1.3,70.7 -9.1,43.4 -49.1,75.2 -93.7,75.6 -45.4,0.4 -85.3,-30.6 -95.7,-74.4 -2.2,-9.2 -2.5,-18.4 -2.5,-27.8 -0.1,-38.7 -0.2,-77.3 -0.3,-116 0,-1.7 -0.1,-3.3 0,-5 0.5,-5.2 -1.7,-6.9 -6.9,-6.8 -15,0.3 -30,0.1 -45,0.1 -41,0 -82,0.1 -123,0.1 -2.3,0 -4.7,0.1 -7,0 -3.4,-0.1 -4.9,1.5 -4.8,4.8 0.1,2.7 0,5.3 0,8 0,52.3 0,104.6 -0.1,156.9 0.1,3.6 0.1,7.3 0.1,11.9 z" /></g>
	<path
   d="m 1763.9,1021.2 c 4.6,2.7 9.2,5.2 13.7,8 16.4,10.5 24.7,25.3 24.5,45.1 -0.3,28.7 0,57.3 -0.2,86 -0.1,14 2.1,26.6 15.6,34.3 2.6,1.5 4,15.6 2.1,17.8 -1.2,1.4 -3,1.2 -4.6,1.2 -22.7,0 -45.3,-0.1 -68,0.1 -4.2,0 -6.9,-1.8 -9.2,-4.8 -5.4,-7.2 -8,-15.3 -8.1,-24.2 -0.2,-18.7 -0.2,-37.3 -0.3,-56 0,-9 -0.4,-18 0.1,-27 1.5,-29.3 -17.2,-39.7 -37.3,-43.6 -5.5,-1.1 -11.3,-1.4 -16.9,-1.4 -26,-0.1 -52,0 -78,-0.1 -10.5,0 -9.1,0.5 -9.1,9.4 0,45.3 0,90.6 0,135.9 0,2.7 0,5.3 0,8 0,2.4 -1.2,3.7 -3.7,3.6 -1.7,0 -3.3,0 -5,0 -21.3,0 -42.6,0 -64,0 -8,0 -8,-0.1 -8.1,-8.3 -0.1,-18.7 0,-37.3 0,-56 0,-107 0,-213.9 0,-320.9 0,-2 0,-4 0,-6 0,-9.5 -0.2,-8.5 8.8,-8.5 66,0 131.9,0 197.9,0 47.7,0 81.9,24.8 96.2,70.5 9.4,29.9 8.9,59.7 -4.1,88.7 -8.1,18.1 -20.3,32.7 -37,43.5 -1.9,1.4 -4.2,2.2 -5.3,4.7 z"
   id="path952"
   inkscape:connector-curvature="0"
   style="fill:#000f47" />
	<path
   d="m 1648.3,885.3 c 14,0 27.9,-0.1 41.9,0 4.7,0 9.3,0.1 13.9,0.7 18.9,2.1 29.2,11.9 32.4,30.8 2.9,16.7 0.5,32.6 -8.7,46.9 -9.2,14.3 -22.1,22.4 -39.8,22.1 -30.3,-0.4 -60.5,-0.1 -90.8,-0.1 -8.9,0 -9,-0.1 -9,-8.4 0,-28.3 0,-56.5 0,-84.8 0,-7 0.1,-7.2 7.1,-7.2 17.7,-0.1 35.4,0 53,0 z"
   id="path954"
   inkscape:connector-curvature="0"
   style="fill:#ffffff" />
	<path
   d="m 2169.4,1175.8 c -2.8,-0.4 -3.4,1.4 -4.4,2.7 -20.5,25.8 -48,39.8 -79.9,45.1 -28.5,4.8 -57.1,3.3 -85.3,-3.4 -16.1,-3.9 -30.5,-11.3 -43.2,-22 -44.5,-37.7 -69.5,-85.9 -76.9,-143.5 -5.9,-46.8 -1.8,-92.4 16.3,-136.2 16.4,-39.7 42,-71.6 80.4,-92.3 17.5,-9.5 36.3,-15.1 56,-17 33,-3.2 66.1,-3 97.6,8.9 52,19.8 83.3,57.8 95.1,112 2.9,13.5 2.4,13.6 -11.4,13.6 -18,0 -36,-0.2 -54,0.1 -5.2,0.1 -7.7,-1.5 -9.2,-6.5 -3.8,-12.2 -10.2,-23.1 -19.1,-32.4 -14.7,-15.4 -33,-23.2 -53.8,-25.7 -25.1,-3 -49.1,-0.5 -71.1,13.3 -14.6,9.1 -24.9,21.9 -32.7,36.9 -9.1,17.7 -14.2,36.6 -16.8,56.1 -3.9,29 -3.5,57.9 4.8,86.1 7.2,24.5 20.7,45.3 39.7,62.4 42.8,38.3 103.3,23.3 132.8,-10.4 12.2,-13.9 20.7,-29.3 21.8,-48.2 0.4,-7 0.3,-7.2 -6.9,-7.2 -23,-0.1 -46,0 -69,0 -8.6,0 -8.4,0.6 -8.4,-7.9 0,-18.7 0.2,-37.3 -0.1,-56 -0.1,-5.2 1.4,-6.8 6.7,-6.8 47,0.2 94,0.1 140.9,0.1 6.8,0 6.9,0.1 7,7.2 0,43.6 0,87.3 0,130.9 0,24 0,48 0,72 0,6.9 -0.1,7 -7.2,7.1 -11.3,0.1 -22.7,0.2 -34,0.2 -8,0 -8,-0.1 -9.5,-7.7 -2,-10.5 -4.2,-21.1 -6.2,-31.5 z"
   id="path956"
   inkscape:connector-curvature="0"
   style="fill:#000f47" />
	<path
   d="m 1146.3,1013.3 c 0,-62.3 0,-124.7 0,-187 0,-2.3 0.1,-4.7 0,-7 -0.3,-3.7 1,-5.7 5,-5.4 2,0.2 4,0 6,0 85,0 170,0 255,0 1.7,0 3.3,0.1 5,0 4.5,-0.4 6.6,0.8 6.5,6 -0.3,20 -0.2,40 -0.1,60 0,3.7 -1.2,5.7 -5.1,5.4 -2.3,-0.1 -4.7,0 -7,0 -57.3,0 -114.7,0 -172,0 -2.3,0 -4.7,0.2 -7,0 -4.1,-0.4 -5.1,1.6 -5,5.3 0.1,12.3 0.1,24.7 0,37 0,12.7 0.2,25.3 -0.1,38 -0.1,5.3 1.7,6.7 6.8,6.7 32,-0.2 64,-0.1 96,-0.1 23.3,0 46.7,0 70,0 7.9,0 8,0.1 8,8.3 0,18.3 0.1,36.7 0,55 0,8 -0.1,8.1 -8.3,8.1 -53,0 -106,0 -159,0 -2.3,0 -4.7,0.3 -7,-0.1 -5.6,-0.8 -6.5,1.9 -6.5,6.8 0.2,28 0.1,56 0.1,84 0,7.8 0.1,7.9 8.3,7.9 61.7,0 123.3,0 185,0 12.4,0 11.2,-1.8 11.2,11 0.1,17 0,34 0,51 0,10.8 0.4,9.4 -10,9.4 -62,0 -124,0 -186,0 -27,0 -54,0 -81,0 -9,0 -9.1,-0.1 -9.1,-9.4 0.3,-63.6 0.3,-127.3 0.3,-190.9 z"
   id="path958"
   inkscape:connector-curvature="0"
   style="fill:#000f47" />
	<path
   d="m 52.3,1092.4 c 11,0 22,0.2 33,-0.1 4.6,-0.1 6.5,1.1 6.5,6.1 -0.1,20.8 11.3,35 27.9,45.5 13.5,8.5 28.7,12 44.6,12.7 19.5,0.9 38.5,-1.1 56.8,-8.5 18.1,-7.3 27.1,-21.2 28.3,-39.9 1.2,-19 -7,-33.6 -23.8,-42.8 -17.5,-9.5 -36.7,-13.5 -56,-17.4 -22.5,-4.6 -45.3,-7.6 -67.4,-13.9 -12.9,-3.6 -25.2,-8.4 -36.7,-15.3 -26.3,-15.8 -41.5,-39.1 -45,-69.4 -2.7,-22.8 -0.2,-45.3 8.3,-66.7 13.6,-34.3 39.1,-56 73.8,-66.3 45.7,-13.5 91.5,-12.3 136.4,4 32.8,11.9 57.2,33.4 69.5,67.1 5.4,14.7 6,29.9 6.7,45.2 0.2,3.8 -1.2,5.4 -5.2,5.3 -22,-0.1 -44,-0.1 -66,0 -3.5,0 -5.5,-0.8 -5.7,-4.9 -1.2,-29.3 -19,-44.8 -45,-52.9 -19.5,-6.1 -39.5,-6.3 -59.2,-1.8 -17.9,4.1 -31.9,13.4 -36.9,32.5 -2.3,8.8 -2.2,17.9 -0.7,26.8 1.2,7.3 5.6,12.6 12.1,16.3 6.4,3.7 13.3,6.1 20.4,8 34.1,9.2 68.5,16.7 103,24.2 15.7,3.4 30.6,8.9 45,16.1 27.7,13.9 43.5,36.6 48.9,66.6 6.4,35.9 -0.5,69.5 -19.4,100.6 -8.1,13.3 -19,23.8 -32.5,31.8 -21.9,12.9 -45.6,20.2 -70.7,22.6 -13.3,1.3 -26.6,2 -39.9,2.1 -25.4,0.2 -49.9,-4.3 -72.9,-14.6 -43.6,-19.5 -67.7,-54.4 -76.4,-100.6 -1,-5.5 -4.1,-12.4 -0.7,-16.5 3.8,-4.6 11.3,-1.5 17.1,-1.7 7.1,-0.4 14.5,-0.2 21.8,-0.2 z"
   id="path960"
   inkscape:connector-curvature="0"
   style="fill:#000f47" />
	<path
   d="m 698.5,963.9 c 0,42 -0.1,84 0,126 0,16.8 -1.8,33.3 -7.5,49.1 -14,38.8 -42,63.6 -80.2,76.6 -42.3,14.4 -85.3,14.6 -127.5,-0.1 -44.6,-15.5 -74.2,-45.9 -84.6,-93 -2.4,-11.1 -3.1,-22.4 -3.1,-33.8 0,-88.3 0,-176.6 0,-265 0,-1.7 0.1,-3.3 0,-5 -0.2,-3.2 0.9,-4.8 4.5,-4.8 24,0.1 48,0.1 72,0 2.9,0 4.3,1 4.3,4 -0.1,2.7 0,5.3 0,8 0,86 0,172 0,258 0,8 0.4,16.1 2.3,23.8 4.9,20.5 18,33.9 38,39.9 18.9,5.7 38.1,6 57.2,1 27.4,-7.2 42.7,-26.6 43.7,-54.9 0.1,-3 0.1,-6 0.1,-9 0,-86.7 0,-173.3 0,-260 0,-12.4 -1.3,-10.8 10.4,-10.8 19.7,-0.1 39.3,-0.1 59,0 12.6,0.1 11.3,-1.9 11.3,10.9 0.2,46.4 0.1,92.7 0.1,139.1 z"
   id="path962"
   inkscape:connector-curvature="0"
   style="fill:#000f47" />
	<path
   d="m 2278.5,1213.7 c -1.1,-4.7 1,-7.6 2.1,-10.6 44.7,-126.7 89.4,-253.4 134.3,-380.1 3.5,-9.9 1.4,-9 12.3,-9 24.7,0 49.3,0 74,0 8.8,0 8.9,0 11.8,8.3 25,71.9 50.1,143.9 75.1,215.8 19.1,55 38.3,109.9 57.4,164.9 1.1,3 3.1,6 2.3,9.7 -2.3,1.8 -5,0.9 -7.5,1 -22.3,0.1 -44.7,-0.1 -67,0.2 -5.2,0.1 -7.6,-1.6 -9.2,-6.6 -6.8,-21.6 -13.8,-43.1 -21,-64.5 -3,-9.1 -1.3,-8.7 -11.5,-8.7 -45.6,0 -91.3,0 -136.9,0 -8.4,0 -8.4,0 -11,7.8 -7.2,21.4 -14.6,42.8 -21.5,64.3 -1.8,5.5 -4.2,7.8 -10.4,7.7 -24.3,-0.5 -48.6,-0.2 -73.3,-0.2 z"
   id="path964"
   inkscape:connector-curvature="0"
   style="fill:#000f47" />
	<path
   d="m 2522.5,1063.8 c -38.1,0 -74.9,0 -112.8,0 18,-54.1 35.8,-107.5 53.6,-160.9 0.6,0 1.3,0 1.9,0 18.9,53.2 37.9,106.4 57.3,160.9 z"
   id="path966"
   inkscape:connector-curvature="0"
   style="fill:#ffffff" />
	<path
   d="m 789.7,1013.6 c 0,-63 0,-125.9 0,-188.9 0,-12.4 -1.1,-10.7 10.5,-10.7 54.6,0 109.3,0 163.9,0 14,0 28,1.1 41.5,4.8 37.1,10.2 59.6,35.4 69.9,71.4 9.8,34.1 9.7,68.9 -1.7,102.3 -15.9,46.6 -51.6,77.9 -105,79.2 -28.6,0.7 -57.3,0.2 -85.9,0.3 -2.3,0 -4.7,0.1 -7,0 -3.6,-0.2 -5.8,0.9 -5.5,5 0.2,2.3 0,4.7 0,7 0,39 0,77.9 0,116.9 0,2 -0.2,4 0,6 0.6,5.1 -1.4,6.9 -6.7,6.8 -18.6,-0.3 -37.3,0 -56,-0.2 -5.6,0 -12.6,2.4 -16.4,-1.1 -4.3,-3.9 -1.6,-11.3 -1.6,-17.1 -0.1,-60.5 0,-121.1 0,-181.7 z"
   id="path968"
   inkscape:connector-curvature="0"
   style="fill:#000f47" />
	<path
   d="m 870.4,943 c 0,-17 0.2,-34 -0.1,-51 -0.1,-5.4 1.7,-6.9 6.9,-6.8 26.3,0.2 52.7,0.2 79,0.2 31,0 46.4,18.1 47.2,48.6 0.3,11.3 -1.6,22.6 -5.6,33.3 -3.3,8.9 -8.3,16.7 -15.3,23.1 -6.6,6 -14.2,10 -23.3,10 -27.7,0.2 -55.3,0.1 -83,0.4 -5.3,0 -5.8,-2.7 -5.8,-6.9 0.1,-16.9 0,-33.9 0,-50.9 z"
   id="path970"
   inkscape:connector-curvature="0"
   style="fill:#ffffff" />
	
	
	
	
	
	
	
	
	
	
	
	
	
	
	
	
	<path
   d="m 2601.6,827.1 c 0.1,-31.3 25.5,-56.4 56.7,-56.1 31.4,0.3 56.2,25.5 56,56.9 -0.2,31.3 -25.5,56.2 -56.8,56.1 -31.1,-0.2 -56,-25.5 -55.9,-56.9 z"
   id="path1004"
   inkscape:connector-curvature="0"
   style="fill:#031249" />
	
	
	
	
	
	
	
	
	
	<path
   d="m 2658.9,777.6 c 27.8,0.4 49.6,23 49.2,50.8 -0.4,27.5 -23.5,49.7 -51,49.2 -27.6,-0.5 -49.6,-23.4 -49.2,-51.1 0.4,-27.6 23,-49.3 51,-48.9 z"
   id="path1024"
   inkscape:connector-curvature="0"
   style="fill:#ffffff" />
	<path
   d="m 2676.6,829.2 c 11.3,7.5 4.5,20.1 8.8,29.6 -0.6,0.3 -1.1,0.8 -1.7,0.9 -13,0.6 -13,0.6 -13.5,-12.7 -0.4,-11 -1.9,-12.4 -13,-12.6 -1.7,0 -3.4,0.2 -5,0 -5.6,-0.8 -6.9,2 -6.6,6.9 0.3,4.3 -0.1,8.7 0.1,13 0.3,4.4 -1.5,6 -5.8,5.7 -3.6,-0.3 -7.5,0.8 -7.4,-5.1 0.2,-18 0.1,-36 0,-54 0,-4 1.6,-5.2 5.3,-5.2 9,0.2 18,0.1 27,0.1 8.7,0 15.8,2.8 19.1,11.5 3.6,8.9 0.7,16.1 -7.3,21.9 z"
   id="path1026"
   inkscape:connector-curvature="0"
   style="fill:#021149" />
	<path
   d="m 2656.6,824 c -11.8,-0.1 -10.5,2.3 -10.9,-11.2 -0.2,-5.3 1.8,-7.1 6.9,-6.6 3.6,0.3 7.3,-0.2 10.9,0.2 5.8,0.6 8.6,3.7 8.7,8.8 0.1,5.2 -2.6,8 -8.6,8.7 -2.4,0.3 -4.7,0.1 -7,0.1 z"
   id="path1028"
   inkscape:connector-curvature="0"
   style="fill:#f9f9fa" />
</g>
</svg>