<svg xmlns="http://www.w3.org/2000/svg" xmlns:xlink="http://www.w3.org/1999/xlink" width="12.969" height="14" viewBox="0 0 12.969 14">
  <defs>
    <style>
      .cls-1 {
        fill: #5b5b5b;
        fill-rule: evenodd;
        filter: url(#filter);
      }
    </style>
    <filter id="filter" x="997.031" y="45" width="12.969" height="14" filterUnits="userSpaceOnUse">
      <feOffset result="offset" dy="1" in="SourceAlpha"/>
      <feGaussianBlur result="blur"/>
      <feFlood result="flood" flood-color="#fff" flood-opacity="0.75"/>
      <feComposite result="composite" operator="in" in2="blur"/>
      <feBlend result="blend" in="SourceGraphic"/>
    </filter>
  </defs>
  <path id="Phone_Hook" data-name="Phone Hook" class="cls-1" d="M1009.81,53.462l0.2-.658-3.9-1.366-0.22.651Zm-4.18-.594s-0.09.411-.12,0.47c-0.06.214-.09,0.131-0.18,0.11a8.237,8.237,0,0,1-3.05-1.544l0.27,0.253a7.066,7.066,0,0,1-1.51-2.855c-0.01-.132-0.12-0.027.08-0.1l0.6-.233-1.963-3.341-0.36.155s-2.832.436-2.314,2.208l0.555,1.1a22.049,22.049,0,0,0,7.882,7.213l1.3,0.639c1.79,0.519,2.53-1.989,2.53-1.989l0.23-.671Zm-3.16-4.223,0.57-.2-1.86-3.455-0.65.279Z" transform="translate(-997.031 -45)"/>
</svg>
