<svg 
 xmlns="http://www.w3.org/2000/svg"
 xmlns:xlink="http://www.w3.org/1999/xlink"
 width="17px" height="17px">
<path fill-rule="evenodd"  fill="rgb(68, 68, 68)"
 d="M17.002,9.789 C17.002,10.951 15.763,10.975 15.763,10.975 L5.589,10.922 L5.831,11.994 L15.352,11.994 C16.207,11.994 16.207,13.944 15.352,13.944 L5.189,13.944 C4.858,13.944 4.090,13.050 4.090,12.344 C4.090,12.079 2.555,1.910 2.555,1.910 L0.980,1.912 C0.980,0.786 2.644,0.294 2.644,0.294 C3.881,0.294 4.774,1.902 4.774,1.902 L4.861,3.034 L15.776,3.018 C16.863,3.018 17.007,4.177 17.007,4.177 L17.002,9.789 ZM14.965,5.531 C14.965,5.200 14.696,4.931 14.364,4.931 L5.850,4.994 C5.519,4.994 5.250,5.263 5.250,5.594 L5.475,8.477 C5.475,8.808 5.744,9.077 6.075,9.077 L14.364,9.015 C14.696,9.015 14.965,8.746 14.965,8.415 L14.965,5.531 ZM5.946,14.918 C6.514,14.918 6.974,15.346 6.974,15.914 C6.974,16.482 6.514,16.943 5.946,16.943 C5.378,16.943 4.949,16.482 4.949,15.914 C4.949,15.346 5.378,14.918 5.946,14.918 ZM12.946,14.918 C13.514,14.918 13.974,15.346 13.974,15.914 C13.974,16.482 13.514,16.943 12.946,16.943 C12.378,16.943 11.949,16.482 11.949,15.914 C11.949,15.346 12.378,14.918 12.946,14.918 Z"/>
</svg>